<svg width="28" height="28" viewBox="0 0 28 28" fill="none" xmlns="http://www.w3.org/2000/svg">
<path d="M12.3666 19.3667L20.5916 11.1417L18.9583 9.50833L12.3666 16.1L9.04158 12.775L7.40825 14.4083L12.3666 19.3667ZM13.9999 25.6667C12.386 25.6667 10.8694 25.3604 9.44992 24.7479C8.03047 24.1354 6.79575 23.3042 5.74575 22.2542C4.69575 21.2042 3.8645 19.9694 3.252 18.55C2.6395 17.1305 2.33325 15.6139 2.33325 14C2.33325 12.3861 2.6395 10.8694 3.252 9.44999C3.8645 8.03055 4.69575 6.79583 5.74575 5.74583C6.79575 4.69583 8.03047 3.86458 9.44992 3.25208C10.8694 2.63958 12.386 2.33333 13.9999 2.33333C15.6138 2.33333 17.1305 2.63958 18.5499 3.25208C19.9694 3.86458 21.2041 4.69583 22.2541 5.74583C23.3041 6.79583 24.1353 8.03055 24.7478 9.44999C25.3603 10.8694 25.6666 12.3861 25.6666 14C25.6666 15.6139 25.3603 17.1305 24.7478 18.55C24.1353 19.9694 23.3041 21.2042 22.2541 22.2542C21.2041 23.3042 19.9694 24.1354 18.5499 24.7479C17.1305 25.3604 15.6138 25.6667 13.9999 25.6667ZM13.9999 23.3333C16.6055 23.3333 18.8124 22.4292 20.6208 20.6208C22.4291 18.8125 23.3333 16.6055 23.3333 14C23.3333 11.3944 22.4291 9.18749 20.6208 7.37916C18.8124 5.57083 16.6055 4.66666 13.9999 4.66666C11.3944 4.66666 9.18742 5.57083 7.37908 7.37916C5.57075 9.18749 4.66659 11.3944 4.66659 14C4.66659 16.6055 5.57075 18.8125 7.37908 20.6208C9.18742 22.4292 11.3944 23.3333 13.9999 23.3333Z" fill="#28D977"/>
</svg>
