<svg width="28" height="28" viewBox="0 0 28 28" fill="none" xmlns="http://www.w3.org/2000/svg">
<path d="M7.00008 16.3333C7.00008 17.3444 7.20425 18.3021 7.61258 19.2063C8.02091 20.1104 8.60425 20.9028 9.36258 21.5833C9.34314 21.4861 9.33341 21.3986 9.33341 21.3208V21.0583C9.33341 20.4361 9.45008 19.8528 9.68341 19.3083C9.91675 18.7639 10.257 18.2681 10.7042 17.8208L14.0001 14.5833L17.2959 17.8208C17.7431 18.2681 18.0834 18.7639 18.3167 19.3083C18.5501 19.8528 18.6667 20.4361 18.6667 21.0583V21.3208C18.6667 21.3986 18.657 21.4861 18.6376 21.5833C19.3959 20.9028 19.9792 20.1104 20.3876 19.2063C20.7959 18.3021 21.0001 17.3444 21.0001 16.3333C21.0001 15.3611 20.8202 14.4424 20.4605 13.5771C20.1008 12.7118 19.5806 11.9389 18.9001 11.2583C18.5112 11.5111 18.1029 11.7007 17.6751 11.8271C17.2473 11.9535 16.8098 12.0167 16.3626 12.0167C15.157 12.0167 14.1119 11.6181 13.2272 10.8208C12.3424 10.0236 11.832 9.04167 11.6959 7.875C10.9376 8.51667 10.2667 9.18264 9.68341 9.87292C9.10008 10.5632 8.60911 11.2632 8.2105 11.9729C7.81189 12.6826 7.5105 13.4069 7.30633 14.1458C7.10216 14.8847 7.00008 15.6139 7.00008 16.3333ZM14.0001 17.85L12.3376 19.4833C12.1237 19.6972 11.9584 19.9403 11.8417 20.2125C11.7251 20.4847 11.6667 20.7667 11.6667 21.0583C11.6667 21.6806 11.8952 22.2153 12.3522 22.6625C12.8091 23.1097 13.3584 23.3333 14.0001 23.3333C14.6417 23.3333 15.1911 23.1097 15.648 22.6625C16.1049 22.2153 16.3334 21.6806 16.3334 21.0583C16.3334 20.7472 16.2751 20.4604 16.1584 20.1979C16.0417 19.9354 15.8765 19.6972 15.6626 19.4833L14.0001 17.85ZM14.0001 3.5V7.35C14.0001 8.01111 14.2286 8.56528 14.6855 9.0125C15.1424 9.45972 15.7015 9.68333 16.3626 9.68333C16.7126 9.68333 17.0383 9.61042 17.3397 9.46458C17.6411 9.31875 17.9084 9.1 18.1417 8.80833L18.6667 8.16667C20.1056 8.98333 21.2431 10.1208 22.0792 11.5792C22.9154 13.0375 23.3334 14.6222 23.3334 16.3333C23.3334 18.9389 22.4292 21.1458 20.6209 22.9542C18.8126 24.7625 16.6056 25.6667 14.0001 25.6667C11.3945 25.6667 9.18758 24.7625 7.37925 22.9542C5.57091 21.1458 4.66675 18.9389 4.66675 16.3333C4.66675 13.825 5.50772 11.4431 7.18966 9.1875C8.87161 6.93194 11.1417 5.03611 14.0001 3.5Z" fill="#DE2B2D"/>
</svg>
