<svg width="18" height="18" viewBox="0 0 18 18" fill="none" xmlns="http://www.w3.org/2000/svg">
<g clip-path="url(#clip0_1001_243)">
<path d="M0.75 3V7.5M0.75 7.5H5.25M0.75 7.5L4.23 4.23C5.03606 3.42353 6.03328 2.8344 7.12861 2.51758C8.22393 2.20075 9.38167 2.16656 10.4938 2.41819C11.6059 2.66982 12.6361 3.19907 13.4884 3.95656C14.3406 4.71405 14.9871 5.67508 15.3675 6.75M17.25 15V10.5M17.25 10.5H12.75M17.25 10.5L13.77 13.77C12.9639 14.5765 11.9667 15.1656 10.8714 15.4824C9.77606 15.7992 8.61833 15.8334 7.50621 15.5818C6.3941 15.3302 5.36385 14.8009 4.5116 14.0434C3.65935 13.2859 3.01288 12.3249 2.6325 11.25" stroke="black" stroke-width="2" stroke-linecap="round" stroke-linejoin="round"/>
</g>
<defs>
<clipPath id="clip0_1001_243">
<rect width="18" height="18" fill="white"/>
</clipPath>
</defs>
</svg>
