<svg width="32" height="28" viewBox="0 0 32 28" fill="none" xmlns="http://www.w3.org/2000/svg">
<g clip-path="url(#clip0_322_483)">
<path d="M30.6737 14.2619C30.6737 13.1148 30.5705 12.2777 30.3471 11.4095H15.824V16.5872H24.3487C24.1769 17.8739 23.2488 19.8117 21.1863 21.1138L21.1574 21.2871L25.7494 24.4957L26.0675 24.5243C28.9893 22.0905 30.6737 18.5095 30.6737 14.2619Z" fill="#4285F4"/>
<path d="M15.8239 27.9038C20.0003 27.9038 23.5064 26.6636 26.0674 24.5244L21.1862 21.1138C19.88 21.9354 18.1269 22.509 15.8239 22.509C11.7334 22.509 8.26158 20.0753 7.02399 16.7113L6.84258 16.7252L2.06781 20.0582L2.00537 20.2147C4.54904 24.7723 9.77394 27.9038 15.8239 27.9038Z" fill="#34A853"/>
<path d="M7.02401 16.7113C6.69746 15.8432 6.50848 14.913 6.50848 13.9519C6.50848 12.9907 6.69746 12.0606 7.00683 11.1925L6.99818 11.0076L2.16357 7.62109L2.00539 7.68896C0.957025 9.58024 0.355469 11.7041 0.355469 13.9519C0.355469 16.1997 0.957025 18.3234 2.00539 20.2147L7.02401 16.7113Z" fill="#FBBC05"/>
<path d="M15.8239 5.3947C18.7284 5.3947 20.6877 6.52635 21.8049 7.47204L26.1705 3.6275C23.4894 1.37969 20.0003 0 15.8239 0C9.77394 0 4.54904 3.1314 2.00537 7.68899L7.00681 11.1925C8.26158 7.82856 11.7334 5.3947 15.8239 5.3947Z" fill="#EB4335"/>
</g>
<defs>
<clipPath id="clip0_322_483">
<rect width="31.0435" height="28" fill="white"/>
</clipPath>
</defs>
</svg>
