<svg width="20" height="20" viewBox="0 0 20 20" fill="none" xmlns="http://www.w3.org/2000/svg">
<path d="M10.0002 10C10.4585 10 10.8509 9.83681 11.1772 9.51042C11.5036 9.18403 11.6668 8.79167 11.6668 8.33334C11.6668 7.87501 11.5036 7.48264 11.1772 7.15626C10.8509 6.82987 10.4585 6.66667 10.0002 6.66667C9.54183 6.66667 9.14947 6.82987 8.82308 7.15626C8.49669 7.48264 8.3335 7.87501 8.3335 8.33334C8.3335 8.79167 8.49669 9.18403 8.82308 9.51042C9.14947 9.83681 9.54183 10 10.0002 10ZM10.0002 16.125C11.6946 14.5695 12.9516 13.1563 13.771 11.8854C14.5904 10.6146 15.0002 9.48612 15.0002 8.50001C15.0002 6.98612 14.5175 5.74653 13.5522 4.78126C12.587 3.81598 11.4029 3.33334 10.0002 3.33334C8.59738 3.33334 7.41336 3.81598 6.44808 4.78126C5.4828 5.74653 5.00016 6.98612 5.00016 8.50001C5.00016 9.48612 5.40989 10.6146 6.22933 11.8854C7.04877 13.1563 8.30572 14.5695 10.0002 16.125ZM10.0002 18.3333C7.76405 16.4306 6.09391 14.6632 4.98975 13.0313C3.88558 11.3993 3.3335 9.88889 3.3335 8.50001C3.3335 6.41667 4.00363 4.75695 5.34391 3.52084C6.68419 2.28473 8.23627 1.66667 10.0002 1.66667C11.7641 1.66667 13.3161 2.28473 14.6564 3.52084C15.9967 4.75695 16.6668 6.41667 16.6668 8.50001C16.6668 9.88889 16.1147 11.3993 15.0106 13.0313C13.9064 14.6632 12.2363 16.4306 10.0002 18.3333Z" fill="#1D1B20"/>
</svg>
