<svg width="17" height="17" viewBox="0 0 17 17" fill="none" xmlns="http://www.w3.org/2000/svg">
<g clip-path="url(#clip0_378_89)">
<path d="M15.5834 7.84832V8.49998C15.5825 10.0274 15.0879 11.5137 14.1734 12.7371C13.2588 13.9605 11.9732 14.8555 10.5085 15.2886C9.04368 15.7217 7.47814 15.6697 6.04533 15.1403C4.61252 14.611 3.38921 13.6326 2.55785 12.3512C1.72648 11.0698 1.3316 9.55403 1.4321 8.02987C1.5326 6.50572 2.1231 5.05488 3.11553 3.89374C4.10796 2.73261 5.44914 1.92338 6.93905 1.58676C8.42896 1.25013 9.98777 1.40414 11.383 2.02582M15.5834 2.83332L8.50008 9.92373L6.37508 7.79873" stroke="white" stroke-width="2" stroke-linecap="round" stroke-linejoin="round"/>
</g>
<defs>
<clipPath id="clip0_378_89">
<rect width="17" height="17" fill="white"/>
</clipPath>
</defs>
</svg>
