<svg width="17" height="17" viewBox="0 0 17 17" fill="none" xmlns="http://www.w3.org/2000/svg">
<g clip-path="url(#clip0_378_68)">
<path d="M5.66658 14.875H2.83325C2.64539 14.875 2.46522 14.8004 2.33238 14.6676C2.19955 14.5347 2.12492 14.3546 2.12492 14.1667V11.3334C2.12492 11.1455 2.05029 10.9653 1.91745 10.8325C1.78461 10.6997 1.60445 10.625 1.41659 10.625C1.22872 10.625 1.04856 10.6997 0.915718 10.8325C0.78288 10.9653 0.708252 11.1455 0.708252 11.3334V14.1667C0.708252 14.7303 0.932135 15.2708 1.33065 15.6693C1.72916 16.0678 2.26967 16.2917 2.83325 16.2917H5.66658C5.85445 16.2917 6.03461 16.2171 6.16745 16.0842C6.30029 15.9514 6.37492 15.7712 6.37492 15.5834C6.37492 15.3955 6.30029 15.2153 6.16745 15.0825C6.03461 14.9497 5.85445 14.875 5.66658 14.875ZM15.5833 10.625C15.3954 10.625 15.2152 10.6997 15.0824 10.8325C14.9495 10.9653 14.8749 11.1455 14.8749 11.3334V14.1667C14.8749 14.3546 14.8003 14.5347 14.6675 14.6676C14.5346 14.8004 14.3544 14.875 14.1666 14.875H11.3333C11.1454 14.875 10.9652 14.9497 10.8324 15.0825C10.6995 15.2153 10.6249 15.3955 10.6249 15.5834C10.6249 15.7712 10.6995 15.9514 10.8324 16.0842C10.9652 16.2171 11.1454 16.2917 11.3333 16.2917H14.1666C14.7302 16.2917 15.2707 16.0678 15.6692 15.6693C16.0677 15.2708 16.2916 14.7303 16.2916 14.1667V11.3334C16.2916 11.1455 16.217 10.9653 16.0841 10.8325C15.9513 10.6997 15.7711 10.625 15.5833 10.625ZM14.1666 0.708374H11.3333C11.1454 0.708374 10.9652 0.783002 10.8324 0.91584C10.6995 1.04868 10.6249 1.22885 10.6249 1.41671C10.6249 1.60457 10.6995 1.78474 10.8324 1.91757C10.9652 2.05041 11.1454 2.12504 11.3333 2.12504H14.1666C14.3544 2.12504 14.5346 2.19967 14.6675 2.33251C14.8003 2.46534 14.8749 2.64551 14.8749 2.83337V5.66671C14.8749 5.85457 14.9495 6.03474 15.0824 6.16757C15.2152 6.30041 15.3954 6.37504 15.5833 6.37504C15.7711 6.37504 15.9513 6.30041 16.0841 6.16757C16.217 6.03474 16.2916 5.85457 16.2916 5.66671V2.83337C16.2916 2.26979 16.0677 1.72929 15.6692 1.33077C15.2707 0.932257 14.7302 0.708374 14.1666 0.708374ZM1.41659 6.37504C1.60445 6.37504 1.78461 6.30041 1.91745 6.16757C2.05029 6.03474 2.12492 5.85457 2.12492 5.66671V2.83337C2.12492 2.64551 2.19955 2.46534 2.33238 2.33251C2.46522 2.19967 2.64539 2.12504 2.83325 2.12504H5.66658C5.85445 2.12504 6.03461 2.05041 6.16745 1.91757C6.30029 1.78474 6.37492 1.60457 6.37492 1.41671C6.37492 1.22885 6.30029 1.04868 6.16745 0.91584C6.03461 0.783002 5.85445 0.708374 5.66658 0.708374H2.83325C2.26967 0.708374 1.72916 0.932257 1.33065 1.33077C0.932135 1.72929 0.708252 2.26979 0.708252 2.83337V5.66671C0.708252 5.85457 0.78288 6.03474 0.915718 6.16757C1.04856 6.30041 1.22872 6.37504 1.41659 6.37504ZM7.08325 3.54171H4.24992C4.06206 3.54171 3.88189 3.61634 3.74905 3.74917C3.61621 3.88201 3.54159 4.06218 3.54159 4.25004V7.08337C3.54159 7.27124 3.61621 7.4514 3.74905 7.58424C3.88189 7.71708 4.06206 7.79171 4.24992 7.79171H7.08325C7.27111 7.79171 7.45128 7.71708 7.58412 7.58424C7.71696 7.4514 7.79158 7.27124 7.79158 7.08337V4.25004C7.79158 4.06218 7.71696 3.88201 7.58412 3.74917C7.45128 3.61634 7.27111 3.54171 7.08325 3.54171ZM6.37492 6.37504H4.95825V4.95837H6.37492V6.37504ZM9.91658 7.79171H12.7499C12.9378 7.79171 13.1179 7.71708 13.2508 7.58424C13.3836 7.4514 13.4583 7.27124 13.4583 7.08337V4.25004C13.4583 4.06218 13.3836 3.88201 13.2508 3.74917C13.1179 3.61634 12.9378 3.54171 12.7499 3.54171H9.91658C9.72872 3.54171 9.54856 3.61634 9.41572 3.74917C9.28288 3.88201 9.20825 4.06218 9.20825 4.25004V7.08337C9.20825 7.27124 9.28288 7.4514 9.41572 7.58424C9.54856 7.71708 9.72872 7.79171 9.91658 7.79171ZM10.6249 4.95837H12.0416V6.37504H10.6249V4.95837ZM7.08325 9.20837H4.24992C4.06206 9.20837 3.88189 9.283 3.74905 9.41584C3.61621 9.54868 3.54159 9.72885 3.54159 9.91671V12.75C3.54159 12.9379 3.61621 13.1181 3.74905 13.2509C3.88189 13.3837 4.06206 13.4584 4.24992 13.4584H7.08325C7.27111 13.4584 7.45128 13.3837 7.58412 13.2509C7.71696 13.1181 7.79158 12.9379 7.79158 12.75V9.91671C7.79158 9.72885 7.71696 9.54868 7.58412 9.41584C7.45128 9.283 7.27111 9.20837 7.08325 9.20837ZM6.37492 12.0417H4.95825V10.625H6.37492V12.0417ZM9.91658 11.3334C10.1044 11.3334 10.2846 11.2587 10.4175 11.1259C10.5503 10.9931 10.6249 10.8129 10.6249 10.625C10.8128 10.625 10.9929 10.5504 11.1258 10.4176C11.2586 10.2847 11.3333 10.1046 11.3333 9.91671C11.3333 9.72885 11.2586 9.54868 11.1258 9.41584C10.9929 9.283 10.8128 9.20837 10.6249 9.20837H9.91658C9.72872 9.20837 9.54856 9.283 9.41572 9.41584C9.28288 9.54868 9.20825 9.72885 9.20825 9.91671V10.625C9.20825 10.8129 9.28288 10.9931 9.41572 11.1259C9.54856 11.2587 9.72872 11.3334 9.91658 11.3334ZM12.7499 9.20837C12.5621 9.20837 12.3819 9.283 12.2491 9.41584C12.1162 9.54868 12.0416 9.72885 12.0416 9.91671V12.0417C11.8537 12.0417 11.6736 12.1163 11.5407 12.2492C11.4079 12.382 11.3333 12.5622 11.3333 12.75C11.3333 12.9379 11.4079 13.1181 11.5407 13.2509C11.6736 13.3837 11.8537 13.4584 12.0416 13.4584H12.7499C12.9378 13.4584 13.1179 13.3837 13.2508 13.2509C13.3836 13.1181 13.4583 12.9379 13.4583 12.75V9.91671C13.4583 9.72885 13.3836 9.54868 13.2508 9.41584C13.1179 9.283 12.9378 9.20837 12.7499 9.20837ZM9.91658 12.0417C9.77649 12.0417 9.63954 12.0832 9.52306 12.1611C9.40657 12.2389 9.31578 12.3495 9.26217 12.479C9.20856 12.6084 9.19453 12.7508 9.22186 12.8882C9.24919 13.0256 9.31666 13.1518 9.41572 13.2509C9.51478 13.35 9.64099 13.4174 9.7784 13.4448C9.9158 13.4721 10.0582 13.4581 10.1877 13.4045C10.3171 13.3508 10.4277 13.2601 10.5055 13.1436C10.5834 13.0271 10.6249 12.8901 10.6249 12.75C10.6249 12.5622 10.5503 12.382 10.4175 12.2492C10.2846 12.1163 10.1044 12.0417 9.91658 12.0417Z" fill="white"/>
</g>
<defs>
<clipPath id="clip0_378_68">
<rect width="17" height="17" fill="white"/>
</clipPath>
</defs>
</svg>
