<svg width="20" height="20" viewBox="0 0 20 20" fill="none" xmlns="http://www.w3.org/2000/svg">
<path d="M9.95817 15C10.2498 15 10.4964 14.8993 10.6978 14.6979C10.8991 14.4965 10.9998 14.25 10.9998 13.9583C10.9998 13.6666 10.8991 13.4201 10.6978 13.2187C10.4964 13.0173 10.2498 12.9166 9.95817 12.9166C9.6665 12.9166 9.41998 13.0173 9.21859 13.2187C9.0172 13.4201 8.9165 13.6666 8.9165 13.9583C8.9165 14.25 9.0172 14.4965 9.21859 14.6979C9.41998 14.8993 9.6665 15 9.95817 15ZM9.20817 11.7916H10.7498C10.7498 11.3333 10.8019 10.9722 10.9061 10.7083C11.0103 10.4444 11.3054 10.0833 11.7915 9.62496C12.1526 9.26385 12.4373 8.9201 12.6457 8.59371C12.854 8.26732 12.9582 7.87496 12.9582 7.41663C12.9582 6.63885 12.6734 6.04163 12.104 5.62496C11.5346 5.20829 10.8609 4.99996 10.0832 4.99996C9.2915 4.99996 8.64914 5.20829 8.15609 5.62496C7.66303 6.04163 7.31928 6.54163 7.12484 7.12496L8.49984 7.66663C8.56928 7.41663 8.72553 7.14579 8.96859 6.85413C9.21164 6.56246 9.58317 6.41663 10.0832 6.41663C10.5276 6.41663 10.8609 6.53815 11.0832 6.78121C11.3054 7.02426 11.4165 7.29163 11.4165 7.58329C11.4165 7.86107 11.3332 8.12149 11.1665 8.36454C10.9998 8.6076 10.7915 8.83329 10.5415 9.04163C9.93039 9.58329 9.55539 9.99301 9.4165 10.2708C9.27761 10.5486 9.20817 11.0555 9.20817 11.7916ZM9.99984 18.3333C8.84706 18.3333 7.76373 18.1145 6.74984 17.677C5.73595 17.2395 4.854 16.6458 4.104 15.8958C3.354 15.1458 2.76025 14.2638 2.32275 13.25C1.88525 12.2361 1.6665 11.1527 1.6665 9.99996C1.6665 8.84718 1.88525 7.76385 2.32275 6.74996C2.76025 5.73607 3.354 4.85413 4.104 4.10413C4.854 3.35413 5.73595 2.76038 6.74984 2.32288C7.76373 1.88538 8.84706 1.66663 9.99984 1.66663C11.1526 1.66663 12.2359 1.88538 13.2498 2.32288C14.2637 2.76038 15.1457 3.35413 15.8957 4.10413C16.6457 4.85413 17.2394 5.73607 17.6769 6.74996C18.1144 7.76385 18.3332 8.84718 18.3332 9.99996C18.3332 11.1527 18.1144 12.2361 17.6769 13.25C17.2394 14.2638 16.6457 15.1458 15.8957 15.8958C15.1457 16.6458 14.2637 17.2395 13.2498 17.677C12.2359 18.1145 11.1526 18.3333 9.99984 18.3333ZM9.99984 16.6666C11.8609 16.6666 13.4373 16.0208 14.729 14.7291C16.0207 13.4375 16.6665 11.8611 16.6665 9.99996C16.6665 8.13885 16.0207 6.56246 14.729 5.27079C13.4373 3.97913 11.8609 3.33329 9.99984 3.33329C8.13873 3.33329 6.56234 3.97913 5.27067 5.27079C3.979 6.56246 3.33317 8.13885 3.33317 9.99996C3.33317 11.8611 3.979 13.4375 5.27067 14.7291C6.56234 16.0208 8.13873 16.6666 9.99984 16.6666Z" fill="#666666"/>
</svg>
