<svg width="25" height="21" viewBox="0 0 25 21" fill="none" xmlns="http://www.w3.org/2000/svg">
<path d="M6.52852 17.3666C6.52852 17.3666 6.70244 17.5591 6.7924 17.6531L7.26019 18.1351C8.56256 19.4726 10.3288 20.224 12.1705 20.224C14.0121 20.224 15.7784 19.4726 17.0808 18.1351L22.192 12.8896C23.4933 11.5504 24.2241 9.73564 24.2241 7.84354C24.2241 5.95144 23.4933 4.13664 22.192 2.79748L21.7212 2.31543C21.0773 1.65122 20.3118 1.12447 19.4688 0.765524C18.6258 0.406578 17.7219 0.222539 16.8094 0.22401C15.1414 0.220994 13.5283 0.83618 12.2664 1.9566L12.2364 1.98432L12.2035 1.9566C10.8888 0.900487 9.28199 0.299814 7.61403 0.240951C6.63318 0.194092 5.65359 0.357858 4.73783 0.721789C3.82207 1.08572 2.99026 1.64182 2.29553 2.35457C1.60079 3.06732 1.05839 3.92106 0.702973 4.86127C0.347556 5.80147 0.186929 6.80748 0.231352 7.81505C0.32431 10.7011 1.91959 12.6432 2.60178 13.3439L6.1312 16.9708L6.52852 17.3666ZM3.8912 12.0272C3.47889 11.6083 2.125 10.0389 2.05003 7.7442C2.01499 6.99265 2.13352 6.24189 2.39798 5.54024C2.66244 4.83858 3.06699 4.20156 3.58558 3.67018C4.10417 3.1388 4.72532 2.72483 5.40906 2.4549C6.0928 2.18497 6.82398 2.06507 7.55555 2.1029C8.75725 2.14646 9.91933 2.55542 10.8946 3.27798L10.929 3.30416L6.7849 7.56093C6.11114 8.25286 5.58341 9.07998 5.23465 9.99069C4.88588 10.9014 4.72356 11.8762 4.75781 12.8542V12.9204L4.69334 12.8542L3.8912 12.0272ZM20.9025 11.5744L15.7973 16.8106C14.834 17.7965 13.5296 18.3501 12.1697 18.3501C10.8099 18.3501 9.50544 17.7965 8.54211 16.8106L8.07282 16.3286C7.99186 16.2439 7.91389 16.1592 7.84043 16.0699C7.76696 15.9805 7.69049 15.8804 7.61403 15.7849C6.8684 14.7702 6.50428 13.5132 6.58856 12.2449C6.67285 10.9765 7.19988 9.782 8.07282 8.88078L13.1825 3.63374C13.6572 3.14121 14.2223 2.75037 14.8452 2.48389C15.468 2.21741 16.1362 2.08058 16.8109 2.08134C17.4852 2.08146 18.1529 2.2187 18.7754 2.48514C19.3979 2.75158 19.9629 3.14195 20.4378 3.63374L20.907 4.11578C21.867 5.10676 22.4055 6.44808 22.4046 7.84603C22.4038 9.24398 21.8637 10.5846 20.9025 11.5744Z" fill="black" stroke="black" stroke-width="0.448"/>
<path d="M16.7072 8.83918C17.204 8.83918 17.6068 8.42547 17.6068 7.91513C17.6068 7.4048 17.204 6.99109 16.7072 6.99109C16.2104 6.99109 15.8076 7.4048 15.8076 7.91513C15.8076 8.42547 16.2104 8.83918 16.7072 8.83918Z" fill="black" stroke="black" stroke-width="0.448"/>
</svg>
