<svg width="24" height="24" viewBox="0 0 24 24" fill="none" xmlns="http://www.w3.org/2000/svg">
<path d="M12 10C10.9 10 9.95833 9.60833 9.175 8.825C8.39167 8.04167 8 7.1 8 6C8 4.9 8.39167 3.95833 9.175 3.175C9.95833 2.39167 10.9 2 12 2C13.1 2 14.0417 2.39167 14.825 3.175C15.6083 3.95833 16 4.9 16 6C16 7.1 15.6083 8.04167 14.825 8.825C14.0417 9.60833 13.1 10 12 10ZM4 18V15.2C4 14.6333 4.14583 14.1125 4.4375 13.6375C4.72917 13.1625 5.11667 12.8 5.6 12.55C6.63333 12.0333 7.68333 11.6458 8.75 11.3875C9.81667 11.1292 10.9 11 12 11C13.1 11 14.1833 11.1292 15.25 11.3875C16.3167 11.6458 17.3667 12.0333 18.4 12.55C18.8833 12.8 19.2708 13.1625 19.5625 13.6375C19.8542 14.1125 20 14.6333 20 15.2V18H4Z" fill="black"/>
</svg>
